{
  "accessors": [
    {
      "bufferView": 2,
      "componentType": 5126,
      "count": 33556,
      "max": [
        0.13214188814163208,
        2.7164628505706787,
        1.82889986038208
      ],
      "min": [
        -5.02617883682251,
        -4.388343811035156,
        -10.485387802124023
      ],
      "type": "VEC3"
    },
    {
      "bufferView": 2,
      "byteOffset": 402672,
      "componentType": 5126,
      "count": 33556,
      "max": [
        1.0,
        0.9999977350234985,
        0.9999861717224121
      ],
      "min": [
        -1.0,
        -0.9999984502792358,
        -0.9999999403953552
      ],
      "type": "VEC3"
    },
    {
      "bufferView": 3,
      "componentType": 5126,
      "count": 33556,
      "max": [
        0.9999995827674866,
        0.9999943375587463,
        0.999993085861206,
        1.0
      ],
      "min": [
        -0.9999995231628418,
        -0.9999943375587463,
        -0.9999850988388062,
        1.0
      ],
      "type": "VEC4"
    },
    {
      "bufferView": 1,
      "componentType": 5126,
      "count": 33556,
      "max": [
        0.9991975426673889,
        0.9953784346580505
      ],
      "min": [
        0.0008024233975447714,
        0.0008024233975447714
      ],
      "type": "VEC2"
    },
    {
      "bufferView": 1,
      "byteOffset": 268448,
      "componentType": 5126,
      "count": 33556,
      "max": [
        0.9991975426673889,
        0.9953784346580505
      ],
      "min": [
        0.0008024233975447714,
        0.0008024233975447714
      ],
      "type": "VEC2"
    },
    {
      "bufferView": 1,
      "byteOffset": 536896,
      "componentType": 5126,
      "count": 33556,
      "max": [
        0.9991975426673889,
        0.9953784346580505
      ],
      "min": [
        0.0008024233975447714,
        0.0008024233975447714
      ],
      "type": "VEC2"
    },
    {
      "bufferView": 1,
      "byteOffset": 805344,
      "componentType": 5126,
      "count": 33556,
      "max": [
        0.9991975426673889,
        0.9953784346580505
      ],
      "min": [
        0.0008024233975447714,
        0.0008024233975447714
      ],
      "type": "VEC2"
    },
    {
      "bufferView": 0,
      "componentType": 5125,
      "count": 180384,
      "type": "SCALAR"
    }
  ],
  "asset": {
    "extras": {
      "author": "Guilherme Guimaraes (https://sketchfab.com/guimaraesmartinsguilherme)",
      "license": "CC-BY-4.0 (http://creativecommons.org/licenses/by/4.0/)",
      "source": "https://sketchfab.com/3d-models/threshs-lantern-and-scythe-8eee78eb90b24521af1ad0a7e6d77e2d",
      "title": "Thresh's Lantern and Scythe"
    },
    "generator": "Sketchfab-13.74.0",
    "version": "2.0"
  },
  "bufferViews": [
    {
      "buffer": 0,
      "byteLength": 721536,
      "name": "floatBufferViews",
      "target": 34963
    },
    {
      "buffer": 0,
      "byteLength": 1073792,
      "byteOffset": 721536,
      "byteStride": 8,
      "name": "floatBufferViews",
      "target": 34962
    },
    {
      "buffer": 0,
      "byteLength": 805344,
      "byteOffset": 1795328,
      "byteStride": 12,
      "name": "floatBufferViews",
      "target": 34962
    },
    {
      "buffer": 0,
      "byteLength": 536896,
      "byteOffset": 2600672,
      "byteStride": 16,
      "name": "floatBufferViews",
      "target": 34962
    }
  ],
  "buffers": [
    {
      "byteLength": 3137568,
      "uri": "scene.bin"
    }
  ],
  "images": [
    {
      "uri": "textures/mat_bake_baseColor.png"
    },
    {
      "uri": "textures/mat_bake_metallicRoughness.png"
    },
    {
      "uri": "textures/mat_bake_emissive.png"
    },
    {
      "uri": "textures/mat_bake_normal.png"
    }
  ],
  "materials": [
    {
      "doubleSided": true,
      "emissiveFactor": [
        1.0,
        1.0,
        1.0
      ],
      "emissiveTexture": {
        "index": 2
      },
      "name": "mat_bake",
      "normalTexture": {
        "index": 3
      },
      "occlusionTexture": {
        "index": 1
      },
      "pbrMetallicRoughness": {
        "baseColorTexture": {
          "index": 0
        },
        "metallicRoughnessTexture": {
          "index": 1
        }
      }
    }
  ],
  "meshes": [
    {
      "name": "scythe_bake_mat_bake_0",
      "primitives": [
        {
          "attributes": {
            "NORMAL": 1,
            "POSITION": 0,
            "TANGENT": 2,
            "TEXCOORD_0": 3,
            "TEXCOORD_1": 4,
            "TEXCOORD_2": 5,
            "TEXCOORD_3": 6
          },
          "indices": 7,
          "material": 0,
          "mode": 4
        }
      ]
    }
  ],
  "nodes": [
    {
      "children": [
        1
      ],
      "matrix": [
        1.0,
        0.0,
        0.0,
        0.0,
        0.0,
        2.220446049250313e-16,
        -1.0,
        0.0,
        0.0,
        1.0,
        2.220446049250313e-16,
        0.0,
        0.0,
        0.0,
        0.0,
        1.0
      ],
      "name": "Sketchfab_model"
    },
    {
      "children": [
        2
      ],
      "matrix": [
        0.009999999776482582,
        0.0,
        0.0,
        0.0,
        0.0,
        0.0,
        0.009999999776482582,
        0.0,
        0.0,
        -0.009999999776482582,
        0.0,
        0.0,
        0.0,
        0.0,
        0.0,
        1.0
      ],
      "name": "273d7ec2a52a4b2b8438ce8fbc35f0a9.fbx"
    },
    {
      "children": [
        3
      ],
      "name": "RootNode"
    },
    {
      "children": [
        4
      ],
      "matrix": [
        7.549789948768648e-06,
        -99.99999999999972,
        1.148130757133714e-08,
        0.0,
        88.3593502926376,
        6.665569174391095e-06,
        -46.82547614133698,
        0.0,
        46.82547614133684,
        3.5453698948861856e-06,
        88.35935029263786,
        0.0,
        125.79470825195313,
        -38.4926643371582,
        453.2721862792969,
        1.0
      ],
      "name": "scythe_bake"
    },
    {
      "mesh": 0,
      "name": "scythe_bake_mat_bake_0"
    }
  ],
  "samplers": [
    {
      "magFilter": 9729,
      "minFilter": 9987,
      "wrapS": 10497,
      "wrapT": 10497
    }
  ],
  "scene": 0,
  "scenes": [
    {
      "name": "Sketchfab_Scene",
      "nodes": [
        0
      ]
    }
  ],
  "textures": [
    {
      "sampler": 0,
      "source": 0
    },
    {
      "sampler": 0,
      "source": 1
    },
    {
      "sampler": 0,
      "source": 2
    },
    {
      "sampler": 0,
      "source": 3
    }
  ]
}
